<svg width="37" height="22" viewBox="0 0 37 22" fill="none" xmlns="http://www.w3.org/2000/svg">
<path d="M9.54894 4.45665C9.8483 3.53534 11.1517 3.53534 11.4511 4.45665L12.5206 7.74845C12.6545 8.16047 13.0385 8.43943 13.4717 8.43943H16.9329C17.9016 8.43943 18.3044 9.67905 17.5207 10.2484L14.7205 12.2829C14.37 12.5375 14.2234 12.9889 14.3572 13.4009L15.4268 16.6927C15.7261 17.614 14.6717 18.3802 13.888 17.8108L11.0878 15.7763C10.7373 15.5217 10.2627 15.5217 9.91221 15.7763L7.11204 17.8108C6.32833 18.3802 5.27385 17.614 5.5732 16.6927L6.64277 13.4009C6.77665 12.9889 6.62999 12.5375 6.2795 12.2829L3.47933 10.2484C2.69562 9.67905 3.09839 8.43943 4.06712 8.43943H7.52832C7.96154 8.43943 8.3455 8.16047 8.47937 7.74845L9.54894 4.45665Z" fill="#FFA722"/>
<path d="M24.5085 3.82506L20.2898 19.4984H18.9091L23.1278 3.82506H24.5085ZM30.362 17.7086C29.612 17.7086 28.9366 17.5594 28.3358 17.2611C27.7349 16.9628 27.2534 16.5537 26.8912 16.0339C26.5289 15.514 26.3308 14.9216 26.2967 14.2569H27.8308C27.8904 14.8492 28.1589 15.3393 28.6362 15.727C29.1177 16.1106 29.693 16.3023 30.362 16.3023C30.899 16.3023 31.3762 16.1766 31.7939 15.9252C32.2157 15.6738 32.546 15.3286 32.7846 14.8897C33.0275 14.4465 33.149 13.9458 33.149 13.3876C33.149 12.8165 33.0233 12.3073 32.7718 11.8599C32.5247 11.4082 32.1838 11.0523 31.7491 10.7924C31.3145 10.5324 30.818 10.4003 30.2598 10.3961C29.8592 10.3918 29.448 10.4536 29.0261 10.5814C28.6042 10.705 28.2569 10.8648 27.9842 11.0609L26.5012 10.8819L27.2939 4.43869H34.095V5.84494H28.6234L28.1632 9.70574H28.2399C28.5083 9.49267 28.845 9.31582 29.2498 9.1752C29.6547 9.03457 30.0765 8.96426 30.5154 8.96426C31.3166 8.96426 32.0304 9.15602 32.6568 9.53954C33.2875 9.91881 33.7818 10.4387 34.1397 11.0992C34.502 11.7597 34.6831 12.514 34.6831 13.362C34.6831 14.1972 34.4956 14.943 34.1206 15.5992C33.7498 16.2512 33.2385 16.7668 32.5865 17.1461C31.9345 17.5211 31.193 17.7086 30.362 17.7086Z" fill="white"/>
</svg>
